<svg width="70" height="50" viewBox="0 0 70 50" fill="none" xmlns="http://www.w3.org/2000/svg">
<path fill-rule="evenodd" clip-rule="evenodd" d="M70 41.6088C68.6141 42.631 68.5295 42.692 66.7084 42.8062C54.64 43.5389 48.8645 25.8869 45.4488 17.5478C45.2004 16.9412 44.7798 15.9003 44.3008 14.8889C43.0077 17.1293 41.7857 19.8758 40.6784 21.8749C34.5565 32.9359 23.4022 46.1673 9.81635 49.1039C7.09772 49.6947 0.0261289 50.1871 3.83195e-05 46.0511C-0.00726704 44.8556 1.03114 43.4217 2.11024 42.9343L3.45756 42.6329L3.16743 43.8462C3.09334 44.0707 2.12381 45.8019 2.91696 45.8285C4.87584 45.8935 5.22859 45.9132 7.24904 45.214C18.6757 41.2611 27.4411 28.0484 31.8326 17.9594C33.7925 13.4551 37.3868 5.34448 43.2081 4.41682C47.8543 3.67529 50.3955 7.29433 51.7971 10.8533C54.8737 18.6645 56.0165 31.5611 62.1446 37.6874C65.2119 40.754 66.7742 40.0607 70 41.6078V41.6088ZM42.9399 12.5314C42.884 12.4623 42.8237 12.3966 42.7594 12.3344H42.7312C42.7955 12.4027 42.8653 12.4662 42.9399 12.5245V12.5314Z" fill="white"/>
<path fill-rule="evenodd" clip-rule="evenodd" d="M42.8804 0.505859C41.3212 2.69895 41.4496 2.37693 39.379 4.05104C37.465 5.60305 27.8752 12.7377 30.3819 15.5827C30.838 16.0997 31.4746 16.5675 32.2552 16.992C32.106 17.3287 31.9651 17.6518 31.8326 17.958C31.1146 19.6085 30.2786 21.3417 29.3341 23.1044C27.8167 22.1748 26.5424 21.1438 25.6084 19.9926C19.0012 11.8485 31.054 4.56214 37.8376 1.73486C40.3736 0.679179 40.1335 0.668347 42.8793 0.505859H42.8804ZM41.7647 19.7917C49.8831 21.2757 59.8131 21.9877 64.0743 23.5653C67.3544 24.7795 70.3715 27.5773 68.6662 31.1727C66.7355 35.2319 59.26 36.1064 55.0041 36.8125C43.5368 38.7131 37.3586 32.5927 48.9355 29.7221C45.2828 28.8949 41.3588 27.9426 37.7301 26.7609C38.8144 25.1124 39.8027 23.4718 40.6856 21.8764C41.0363 21.2442 41.3974 20.5381 41.7689 19.7956L41.7647 19.7917Z" fill="#0B64F4"/>
</svg>
